<?xml version="1.0" encoding="UTF-8"?>
<svg xmlns="http://www.w3.org/2000/svg" xmlns:xlink="http://www.w3.org/1999/xlink" width="201.738pt" height="71.464pt" viewBox="0 0 201.738 71.464">
<defs>
<g>
<g id="glyph-0-0">
<path d="M 1.03125 -4.4375 L 1.03125 -2 C 1.03125 -1.25 1.015625 -0.53125 0.9375 0 L 0.953125 0.03125 C 1.078125 0.015625 1.34375 0 1.46875 0 C 1.578125 0 1.859375 0.015625 1.96875 0.03125 L 2 0 C 1.90625 -0.5625 1.890625 -1.25 1.890625 -2 L 1.890625 -2.84375 C 2.109375 -2.78125 2.375 -2.75 2.734375 -2.75 C 4.546875 -2.75 5.171875 -3.890625 5.171875 -4.75 C 5.171875 -5.484375 4.703125 -6.5 2.859375 -6.5 C 2.609375 -6.5 1.765625 -6.4375 1.46875 -6.4375 C 1.34375 -6.4375 1.078125 -6.4375 0.953125 -6.453125 L 0.9375 -6.4375 C 1.015625 -5.859375 1.03125 -5.1875 1.03125 -4.4375 Z M 1.890625 -5.625 C 1.890625 -5.921875 2.078125 -6.078125 2.796875 -6.078125 C 3.484375 -6.078125 4.203125 -5.875 4.203125 -4.6875 C 4.203125 -3.546875 3.65625 -3.1875 2.6875 -3.1875 C 2.4375 -3.1875 2.03125 -3.203125 1.890625 -3.28125 Z M 1.890625 -5.625 "/>
</g>
<g id="glyph-0-1">
<path d="M 0.375 -2.046875 C 0.375 -0.84375 1.171875 0.09375 2.5 0.09375 C 3.8125 0.09375 4.609375 -0.828125 4.609375 -2.140625 C 4.609375 -3.484375 3.875 -4.375 2.53125 -4.375 C 1.21875 -4.375 0.375 -3.453125 0.375 -2.046875 Z M 2.46875 -3.984375 C 3.515625 -3.984375 3.734375 -3.15625 3.734375 -1.953125 C 3.734375 -1 3.25 -0.296875 2.578125 -0.296875 C 1.53125 -0.296875 1.25 -1.453125 1.25 -2.21875 C 1.25 -3.078125 1.53125 -3.984375 2.46875 -3.984375 Z M 2.46875 -3.984375 "/>
</g>
<g id="glyph-0-2">
<path d="M 1.671875 -3.328125 L 1.671875 -4.234375 C 1.671875 -4.3125 1.65625 -4.34375 1.609375 -4.34375 C 1.390625 -4.296875 1.03125 -4.28125 0.796875 -4.3125 L 0.78125 -4.28125 C 0.84375 -3.84375 0.875 -3.09375 0.875 -2.34375 L 0.875 -1.796875 C 0.875 -1.046875 0.859375 -0.53125 0.78125 0 L 0.796875 0.03125 C 0.921875 0.015625 1.140625 0 1.265625 0 C 1.390625 0 1.609375 0.015625 1.734375 0.03125 L 1.75 0 C 1.6875 -0.5625 1.671875 -1.03125 1.671875 -1.796875 L 1.671875 -2.3125 C 1.671875 -2.734375 1.796875 -2.96875 2 -3.296875 C 2.15625 -3.515625 2.375 -3.65625 2.5625 -3.65625 C 2.765625 -3.65625 2.953125 -3.625 3.078125 -3.515625 L 3.15625 -3.53125 L 3.359375 -4.265625 L 3.3125 -4.3125 C 3.15625 -4.359375 3.140625 -4.375 2.953125 -4.375 C 2.421875 -4.375 2.140625 -4.0625 1.6875 -3.3125 Z M 1.671875 -3.328125 "/>
</g>
<g id="glyph-0-3">
<path d="M 0.953125 -4.28125 C 0.75 -4.28125 0.53125 -4.28125 0.40625 -4.296875 C 0.34375 -4.140625 0.296875 -4.03125 0.1875 -3.890625 L 0.234375 -3.8125 C 0.40625 -3.828125 0.71875 -3.84375 0.953125 -3.84375 L 0.953125 -2.46875 C 0.953125 -1.875 0.921875 -1.15625 0.921875 -0.859375 C 0.921875 -0.203125 1.328125 0.09375 1.796875 0.09375 C 2.21875 0.09375 2.53125 0 2.953125 -0.265625 L 2.828125 -0.515625 C 2.515625 -0.40625 2.296875 -0.40625 2.046875 -0.4375 C 1.796875 -0.484375 1.71875 -0.71875 1.71875 -1.25 C 1.71875 -1.5625 1.75 -1.984375 1.75 -2.578125 L 1.75 -3.84375 L 2.125 -3.84375 C 2.359375 -3.84375 2.71875 -3.828125 2.84375 -3.8125 C 2.875 -3.984375 2.90625 -4.078125 2.953125 -4.234375 L 2.90625 -4.296875 C 2.734375 -4.28125 2.4375 -4.28125 2.21875 -4.28125 L 1.75 -4.28125 C 1.75 -5.03125 1.75 -5.15625 1.796875 -5.734375 C 1.796875 -5.796875 1.765625 -5.828125 1.703125 -5.828125 C 1.453125 -5.734375 1.328125 -5.625 1 -5.578125 L 0.984375 -5.546875 C 0.96875 -5.203125 0.953125 -4.859375 0.953125 -4.28125 Z M 0.953125 -4.28125 "/>
</g>
<g id="glyph-0-4">
<path d="M 1.609375 -3.515625 L 1.609375 -4.234375 C 1.609375 -4.3125 1.609375 -4.34375 1.5625 -4.34375 C 1.328125 -4.296875 0.984375 -4.28125 0.75 -4.3125 L 0.734375 -4.28125 C 0.796875 -3.84375 0.8125 -3.09375 0.8125 -2.34375 L 0.8125 -1.796875 C 0.8125 -1.046875 0.8125 -0.53125 0.734375 0 L 0.75 0.03125 C 0.875 0.015625 1.09375 0 1.21875 0 C 1.328125 0 1.5625 0.015625 1.6875 0.03125 L 1.703125 0 C 1.625 -0.5625 1.609375 -1.03125 1.609375 -1.796875 L 1.609375 -3 C 2.078125 -3.484375 2.640625 -3.78125 2.984375 -3.78125 C 3.375 -3.78125 3.65625 -3.5625 3.65625 -2.890625 L 3.65625 -1.796875 C 3.65625 -1.046875 3.640625 -0.53125 3.5625 0 L 3.578125 0.03125 C 3.703125 0.015625 3.921875 0 4.046875 0 C 4.171875 0 4.390625 0.015625 4.515625 0.03125 L 4.53125 0 C 4.453125 -0.5625 4.453125 -1.03125 4.453125 -1.796875 L 4.453125 -2.796875 C 4.453125 -2.9375 4.453125 -3.0625 4.4375 -3.1875 C 4.921875 -3.703125 5.3125 -3.78125 5.703125 -3.78125 C 6.234375 -3.78125 6.5 -3.5625 6.5 -2.890625 L 6.5 -1.796875 C 6.5 -1.046875 6.484375 -0.53125 6.40625 0 L 6.4375 0.03125 C 6.546875 0.015625 6.78125 0 6.890625 0 C 7.015625 0 7.25 0.015625 7.359375 0.03125 L 7.390625 0 C 7.3125 -0.5625 7.296875 -1.03125 7.296875 -1.796875 L 7.296875 -2.796875 C 7.296875 -3.671875 7.140625 -4.375 6.0625 -4.375 C 5.515625 -4.375 4.9375 -4.1875 4.375 -3.59375 C 4.28125 -4.0625 3.875 -4.375 3.3125 -4.375 C 2.703125 -4.375 2.109375 -3.984375 1.640625 -3.484375 Z M 1.609375 -3.515625 "/>
</g>
<g id="glyph-0-5">
<path d="M 3.09375 -0.484375 C 3.203125 -0.09375 3.5 0.09375 3.875 0.09375 C 4.109375 0.09375 4.421875 0.046875 4.671875 -0.203125 L 4.578125 -0.453125 C 4.46875 -0.421875 4.390625 -0.40625 4.3125 -0.40625 C 4.21875 -0.40625 4.09375 -0.421875 4.03125 -0.484375 C 3.921875 -0.5625 3.859375 -0.8125 3.859375 -1.25 C 3.859375 -1.546875 3.890625 -2.65625 3.890625 -2.765625 C 3.890625 -4.109375 3 -4.375 2.25 -4.375 C 1.484375 -4.375 1.03125 -4 0.78125 -3.796875 L 0.75 -3.765625 L 0.921875 -3.09375 L 1.046875 -3.078125 C 1.328125 -3.53125 1.671875 -3.921875 2.140625 -3.921875 C 2.5 -3.921875 3.09375 -3.875 3.09375 -2.75 C 3.09375 -2.6875 3.0625 -2.640625 3.03125 -2.625 L 2.109375 -2.421875 C 1.09375 -2.1875 0.453125 -1.65625 0.453125 -0.984375 C 0.453125 -0.234375 0.953125 0.09375 1.6875 0.09375 C 2.25 0.09375 2.515625 -0.03125 3.046875 -0.484375 Z M 3.09375 -2.25 L 3.046875 -1.0625 C 3.046875 -0.921875 2.984375 -0.859375 2.90625 -0.796875 C 2.625 -0.59375 2.296875 -0.40625 2 -0.40625 C 1.546875 -0.40625 1.25 -0.703125 1.25 -1.015625 C 1.25 -1.46875 1.46875 -1.796875 2.25 -2.015625 Z M 3.09375 -2.25 "/>
</g>
<g id="glyph-0-6">
<path d="M 0.890625 -2.34375 L 0.890625 -1.796875 C 0.890625 -1.046875 0.875 -0.53125 0.8125 0 L 0.828125 0.03125 C 0.953125 0.015625 1.171875 0 1.296875 0 C 1.421875 0 1.640625 0.015625 1.765625 0.03125 L 1.78125 0 C 1.71875 -0.5625 1.6875 -1.03125 1.6875 -1.796875 L 1.6875 -2.5 C 1.6875 -3.25 1.71875 -3.609375 1.78125 -4.21875 C 1.78125 -4.3125 1.78125 -4.3125 1.6875 -4.3125 C 1.46875 -4.296875 1.03125 -4.28125 0.828125 -4.3125 L 0.8125 -4.28125 C 0.875 -3.84375 0.890625 -3.09375 0.890625 -2.34375 Z M 1.609375 -6.4375 L 1.109375 -6.4375 C 0.8125 -5.984375 0.4375 -5.546875 0.078125 -5.15625 L 0.28125 -5.015625 C 0.65625 -5.28125 0.984375 -5.53125 1.34375 -5.90625 C 1.6875 -5.546875 2.015625 -5.296875 2.40625 -5.015625 L 2.609375 -5.15625 C 2.25 -5.546875 1.890625 -5.96875 1.609375 -6.4375 Z M 1.609375 -6.4375 "/>
</g>
<g id="glyph-0-7">
<path d="M 3.90625 -1.03125 C 3.5625 -0.65625 3.09375 -0.484375 2.546875 -0.484375 C 2.203125 -0.484375 1.734375 -0.625 1.453125 -1.0625 C 1.28125 -1.328125 1.21875 -1.75 1.21875 -2.328125 L 3.921875 -2.328125 C 4.03125 -2.328125 4.109375 -2.375 4.109375 -2.5 C 4.109375 -3.328125 3.703125 -4.375 2.375 -4.375 C 1.359375 -4.375 0.34375 -3.546875 0.34375 -2.078125 C 0.34375 -1.515625 0.453125 -0.953125 0.78125 -0.5625 C 1.125 -0.15625 1.703125 0.09375 2.375 0.09375 C 3.09375 0.09375 3.734375 -0.265625 4.109375 -0.78125 Z M 1.25 -2.71875 C 1.421875 -3.765625 2.078125 -3.984375 2.375 -3.984375 C 2.78125 -3.984375 3.21875 -3.609375 3.21875 -2.859375 C 3.21875 -2.765625 3.1875 -2.71875 3.078125 -2.71875 Z M 1.25 -2.71875 "/>
</g>
<g id="glyph-0-8">
<path d="M 0.5 -1 L 0.328125 -0.171875 C 0.890625 0.03125 1.453125 0.09375 1.828125 0.09375 C 3.203125 0.09375 3.53125 -0.71875 3.53125 -1.265625 C 3.53125 -2.078125 2.875 -2.40625 2.171875 -2.578125 C 1.796875 -2.65625 1.25 -2.84375 1.25 -3.34375 C 1.25 -3.765625 1.578125 -3.984375 2 -3.984375 C 2.515625 -3.984375 2.84375 -3.5625 3.078125 -3.296875 L 3.203125 -3.3125 L 3.40625 -4.046875 L 3.390625 -4.078125 C 3.09375 -4.234375 2.546875 -4.375 2.046875 -4.375 C 1.3125 -4.375 0.53125 -3.984375 0.53125 -3.15625 C 0.53125 -2.359375 1.140625 -2.109375 1.734375 -1.9375 C 2.3125 -1.78125 2.734375 -1.609375 2.734375 -1.125 C 2.734375 -0.59375 2.359375 -0.296875 1.828125 -0.296875 C 1.34375 -0.296875 0.921875 -0.625 0.640625 -1.015625 Z M 0.5 -1 "/>
</g>
<g id="glyph-0-9">
<path d="M 2.015625 0.03125 C 2.109375 0 2.21875 0 2.328125 0 C 2.421875 0 2.53125 0 2.625 0.03125 C 3.140625 -1.421875 3.765625 -2.84375 4.40625 -4.3125 C 4.3125 -4.28125 4.125 -4.28125 4.03125 -4.28125 C 3.921875 -4.28125 3.78125 -4.28125 3.6875 -4.3125 C 3.296875 -3.1875 2.9375 -1.875 2.484375 -0.890625 L 2.46875 -0.890625 C 1.96875 -2.046875 1.640625 -3.15625 1.28125 -4.3125 C 1.140625 -4.28125 0.921875 -4.28125 0.78125 -4.28125 C 0.625 -4.28125 0.359375 -4.28125 0.203125 -4.3125 C 0.875 -2.84375 1.453125 -1.421875 2.015625 0.03125 Z M 2.015625 0.03125 "/>
</g>
<g id="glyph-0-10">
<path d="M 0.890625 -2.34375 L 0.890625 -1.796875 C 0.890625 -1.046875 0.875 -0.53125 0.8125 0 L 0.828125 0.03125 C 0.953125 0.015625 1.171875 0 1.296875 0 C 1.421875 0 1.640625 0.015625 1.765625 0.03125 L 1.78125 0 C 1.71875 -0.5625 1.6875 -1.03125 1.6875 -1.796875 L 1.6875 -2.5 C 1.6875 -3.25 1.71875 -3.609375 1.78125 -4.21875 C 1.78125 -4.3125 1.78125 -4.3125 1.6875 -4.3125 C 1.46875 -4.296875 1.03125 -4.28125 0.828125 -4.3125 L 0.8125 -4.28125 C 0.875 -3.84375 0.890625 -3.09375 0.890625 -2.34375 Z M 0.796875 -5.953125 C 0.796875 -5.6875 1.03125 -5.4375 1.3125 -5.4375 C 1.578125 -5.4375 1.8125 -5.6875 1.8125 -5.953125 C 1.8125 -6.21875 1.578125 -6.453125 1.3125 -6.453125 C 1.03125 -6.453125 0.796875 -6.21875 0.796875 -5.953125 Z M 0.796875 -5.953125 "/>
</g>
<g id="glyph-0-11">
<path d="M 4.59375 -1.921875 L 0.65625 -1.921875 L 0.65625 -1.4375 L 4.59375 -1.4375 Z M 4.59375 -3.171875 L 0.65625 -3.171875 L 0.65625 -2.6875 L 4.59375 -2.6875 Z M 4.59375 -3.171875 "/>
</g>
<g id="glyph-1-0">
<path d="M 1.78125 -3.984375 L 1.3125 -1.796875 C 1.171875 -1.125 1.015625 -0.484375 0.828125 0 L 0.828125 0.03125 C 0.828125 0.03125 1 0 1.3125 0 C 1.609375 0 1.765625 0.03125 1.765625 0.03125 L 1.78125 0 C 1.828125 -0.515625 1.953125 -1.125 2.078125 -1.796875 L 2.21875 -2.5 C 2.40625 -2.4375 2.546875 -2.40625 2.859375 -2.40625 C 4.5 -2.40625 5.28125 -3.5 5.390625 -4.265625 C 5.484375 -4.8125 5.375 -5.84375 3.71875 -5.84375 C 3.484375 -5.84375 2.8125 -5.78125 2.53125 -5.78125 C 2.234375 -5.78125 2.09375 -5.8125 2.09375 -5.8125 L 2.0625 -5.78125 C 2.03125 -5.28125 1.921875 -4.65625 1.78125 -3.984375 Z M 2.796875 -5.140625 C 2.84375 -5.40625 2.9375 -5.546875 3.59375 -5.546875 C 4.203125 -5.546875 4.671875 -5.25 4.5 -4.109375 C 4.328125 -3.140625 3.765625 -2.75 2.890625 -2.75 C 2.65625 -2.75 2.390625 -2.765625 2.28125 -2.828125 Z M 2.796875 -5.140625 "/>
</g>
<g id="glyph-1-1">
<path d="M 3.65625 -1.234375 L 4.296875 -3.90625 C 4.25 -3.90625 4.15625 -3.90625 4.078125 -3.890625 C 3.90625 -3.890625 3.71875 -3.859375 3.609375 -3.890625 C 3.375 -3.90625 3.25 -3.90625 2.890625 -3.90625 C 2.03125 -3.90625 0.53125 -2.453125 0.53125 -1.046875 C 0.53125 -0.546875 0.703125 0.09375 1.453125 0.09375 C 2.09375 0.09375 2.515625 -0.5 3.046875 -1.296875 L 3.0625 -1.28125 L 2.953125 -0.8125 C 2.890625 -0.578125 2.890625 -0.46875 2.890625 -0.390625 C 2.890625 -0.03125 3.171875 0.09375 3.4375 0.09375 C 3.796875 0.09375 4.109375 -0.078125 4.296875 -0.171875 L 4.296875 -0.40625 L 4.28125 -0.4375 C 4.109375 -0.390625 3.9375 -0.375 3.84375 -0.375 C 3.6875 -0.375 3.59375 -0.46875 3.59375 -0.65625 C 3.59375 -0.8125 3.609375 -1 3.65625 -1.234375 Z M 3.171875 -1.96875 C 2.71875 -1.15625 1.984375 -0.4375 1.6875 -0.4375 C 1.390625 -0.4375 1.28125 -0.6875 1.28125 -1.1875 C 1.28125 -2.140625 2.109375 -3.546875 2.921875 -3.546875 C 3.140625 -3.546875 3.296875 -3.53125 3.484375 -3.453125 C 3.484375 -3.453125 3.390625 -2.53125 3.171875 -1.96875 Z M 3.171875 -1.96875 "/>
</g>
<g id="glyph-1-2">
<path d="M 3 0.28125 C 2.859375 0.953125 2.703125 1.59375 2.53125 2.078125 L 2.53125 2.109375 C 2.53125 2.109375 2.65625 2.078125 2.984375 2.078125 C 3.28125 2.078125 3.40625 2.109375 3.40625 2.109375 L 3.421875 2.078125 C 3.453125 1.5625 3.5625 0.953125 3.71875 0.28125 L 4.578125 -3.734375 C 4.578125 -3.78125 4.578125 -3.828125 4.578125 -3.859375 C 4.578125 -3.921875 4.5625 -3.96875 4.5 -3.96875 C 4.4375 -3.96875 4.34375 -3.90625 4.265625 -3.796875 L 4.078125 -3.546875 C 3.828125 -3.796875 3.46875 -3.9375 3.03125 -3.9375 C 2.453125 -3.9375 1.921875 -3.6875 1.5 -3.28125 C 1.046875 -2.84375 0.671875 -2.21875 0.671875 -1.40625 C 0.671875 -0.671875 1.0625 0.09375 2.140625 0.09375 C 2.640625 0.09375 2.9375 -0.09375 3.109375 -0.203125 Z M 3.671875 -2.921875 L 3.1875 -0.609375 C 2.921875 -0.4375 2.625 -0.34375 2.453125 -0.34375 C 2.015625 -0.34375 1.5 -0.578125 1.5 -1.421875 C 1.5 -2.015625 1.71875 -2.65625 1.953125 -3 C 2.171875 -3.359375 2.5 -3.5625 2.921875 -3.5625 C 3.296875 -3.5625 3.53125 -3.328125 3.671875 -2.921875 Z M 3.671875 -2.921875 "/>
</g>
<g id="glyph-1-3">
<path d="M 3.234375 -0.578125 L 3.25 -0.578125 L 3.171875 0 C 3.171875 0.015625 3.1875 0.03125 3.25 0.03125 C 3.375 0.015625 3.4375 0 3.5625 0 C 3.671875 0 3.84375 0.015625 3.953125 0.03125 L 3.984375 0 C 3.984375 -0.390625 4.046875 -1.046875 4.203125 -1.71875 L 4.3125 -2.234375 C 4.453125 -2.90625 4.5625 -3.375 4.734375 -3.84375 L 4.734375 -3.875 C 4.734375 -3.875 4.59375 -3.84375 4.28125 -3.84375 C 3.984375 -3.84375 3.859375 -3.875 3.859375 -3.875 L 3.84375 -3.84375 C 3.8125 -3.34375 3.734375 -2.921875 3.59375 -2.234375 L 3.34375 -1.0625 C 3.046875 -0.796875 2.59375 -0.40625 2.203125 -0.40625 C 1.765625 -0.40625 1.59375 -0.546875 1.765625 -1.34375 L 1.953125 -2.234375 C 2.09375 -2.90625 2.203125 -3.375 2.375 -3.84375 L 2.375 -3.875 C 2.375 -3.875 2.25 -3.84375 1.921875 -3.84375 C 1.625 -3.84375 1.5 -3.875 1.5 -3.875 L 1.484375 -3.84375 C 1.453125 -3.34375 1.375 -2.921875 1.234375 -2.234375 L 1 -1.125 C 0.875 -0.53125 0.984375 0.09375 1.8125 0.09375 C 2.171875 0.09375 2.625 -0.03125 3.234375 -0.578125 Z M 3.234375 -0.578125 "/>
</g>
<g id="glyph-1-4">
<path d="M 1.5 -1.859375 C 3.828125 -1.953125 3.984375 -2.90625 3.984375 -3.25 C 3.984375 -3.625 3.734375 -3.9375 3.078125 -3.9375 C 1.484375 -3.9375 0.6875 -2.40625 0.6875 -1.28125 C 0.6875 -0.546875 1.140625 0.09375 1.90625 0.09375 C 2.65625 0.09375 3.328125 -0.234375 3.671875 -0.734375 C 3.625 -0.828125 3.609375 -1.078125 3.59375 -1.1875 L 3.53125 -1.203125 C 3.28125 -0.75 2.65625 -0.34375 2.234375 -0.34375 C 1.84375 -0.34375 1.484375 -0.6875 1.484375 -1.484375 C 1.484375 -1.5625 1.5 -1.796875 1.5 -1.859375 Z M 3.3125 -3.265625 C 3.3125 -2.5 2.59375 -2.21875 1.546875 -2.171875 C 1.859375 -3.375 2.4375 -3.609375 2.875 -3.609375 C 3.171875 -3.609375 3.3125 -3.5 3.3125 -3.265625 Z M 3.3125 -3.265625 "/>
</g>
<g id="glyph-1-5">
<path d="M 1.609375 -3.84375 L 1.015625 -3.84375 C 1 -3.84375 1 -3.84375 0.984375 -3.8125 L 0.921875 -3.484375 C 0.921875 -3.46875 0.921875 -3.453125 0.953125 -3.453125 L 1.53125 -3.453125 L 1.21875 -2.078125 C 1.109375 -1.53125 0.953125 -0.984375 0.921875 -0.703125 C 0.828125 -0.28125 1 0.09375 1.40625 0.09375 C 1.78125 0.09375 2.25 -0.046875 2.578125 -0.28125 L 2.515625 -0.53125 C 2.25 -0.40625 2.03125 -0.40625 1.875 -0.40625 C 1.875 -0.40625 1.859375 -0.40625 1.859375 -0.40625 C 1.65625 -0.40625 1.609375 -0.640625 1.6875 -1 C 1.734375 -1.28125 1.84375 -1.625 1.953125 -2.171875 L 2.21875 -3.453125 L 3.046875 -3.453125 C 3.140625 -3.453125 3.28125 -3.484375 3.296875 -3.5625 L 3.34375 -3.796875 C 3.34375 -3.828125 3.3125 -3.84375 3.28125 -3.84375 L 2.3125 -3.84375 C 2.453125 -4.515625 2.46875 -4.578125 2.625 -5.09375 C 2.625 -5.15625 2.609375 -5.1875 2.5625 -5.1875 C 2.3125 -5.09375 2.234375 -5.015625 1.859375 -4.984375 L 1.84375 -4.953125 C 1.75 -4.609375 1.71875 -4.375 1.609375 -3.84375 Z M 1.609375 -3.84375 "/>
</g>
<g id="glyph-1-6">
<path d="M 0.5625 -0.859375 L 0.3125 -0.15625 C 0.75 0.03125 1.21875 0.09375 1.546875 0.09375 C 2.515625 0.09375 3.109375 -0.453125 3.109375 -1.171875 C 3.109375 -1.5 2.953125 -1.875 2.4375 -2.140625 C 2.03125 -2.34375 1.734375 -2.578125 1.734375 -3.015625 C 1.734375 -3.40625 2.0625 -3.578125 2.4375 -3.578125 C 2.875 -3.578125 3.09375 -3.265625 3.15625 -3.015625 L 3.28125 -3.015625 L 3.53125 -3.625 L 3.53125 -3.65625 C 3.3125 -3.78125 3 -3.9375 2.5625 -3.9375 C 1.890625 -3.9375 1.046875 -3.625 1.046875 -2.71875 C 1.046875 -2.578125 1.0625 -2.46875 1.109375 -2.375 C 1.234375 -2.109375 1.53125 -1.90625 1.796875 -1.734375 C 2.125 -1.546875 2.390625 -1.28125 2.390625 -0.984375 C 2.390625 -0.46875 1.984375 -0.265625 1.609375 -0.265625 C 1.25 -0.265625 0.8125 -0.484375 0.6875 -0.875 Z M 0.5625 -0.859375 "/>
</g>
</g>
<clipPath id="clip-0">
<path clip-rule="nonzero" d="M 0 56 L 58 56 L 58 71.464844 L 0 71.464844 Z M 0 56 "/>
</clipPath>
<clipPath id="clip-1">
<path clip-rule="nonzero" d="M 113 56 L 171 56 L 171 71.464844 L 113 71.464844 Z M 113 56 "/>
</clipPath>
</defs>
<path fill="none" stroke-width="0.59776" stroke-linecap="butt" stroke-linejoin="miter" stroke="rgb(0%, 0%, 0%)" stroke-opacity="1" stroke-miterlimit="10" d="M 0.00178125 56.692344 L 0.00178125 70.868125 L 56.693188 70.868125 L 56.693188 56.692344 Z M 0.00178125 56.692344 " transform="matrix(1, 0, 0, -1, 0.299, 71.165)"/>
<g fill="rgb(0%, 0%, 0%)" fill-opacity="1">
<use xlink:href="#glyph-0-0" x="5.273" y="10.008"/>
<use xlink:href="#glyph-0-1" x="10.842093" y="10.008"/>
<use xlink:href="#glyph-0-2" x="15.823393" y="10.008"/>
<use xlink:href="#glyph-0-3" x="19.360116" y="10.008"/>
</g>
<g fill="rgb(0%, 0%, 0%)" fill-opacity="1">
<use xlink:href="#glyph-0-4" x="25.23805" y="10.008"/>
<use xlink:href="#glyph-0-5" x="33.277869" y="10.008"/>
<use xlink:href="#glyph-0-6" x="38.069879" y="10.008"/>
<use xlink:href="#glyph-0-3" x="40.660155" y="10.008"/>
<use xlink:href="#glyph-0-2" x="44.047439" y="10.008"/>
</g>
<g fill="rgb(0%, 0%, 0%)" fill-opacity="1">
<use xlink:href="#glyph-0-7" x="47.504461" y="10.008"/>
</g>
<g clip-path="url(#clip-0)">
<path fill="none" stroke-width="0.59776" stroke-linecap="butt" stroke-linejoin="miter" stroke="rgb(0%, 0%, 0%)" stroke-opacity="1" stroke-miterlimit="10" d="M 0.00178125 0.0009375 L 0.00178125 14.172813 L 56.693188 14.172813 L 56.693188 0.0009375 Z M 0.00178125 0.0009375 " transform="matrix(1, 0, 0, -1, 0.299, 71.165)"/>
</g>
<g fill="rgb(0%, 0%, 0%)" fill-opacity="1">
<use xlink:href="#glyph-0-0" x="4.625" y="66.701"/>
<use xlink:href="#glyph-0-1" x="10.194093" y="66.701"/>
<use xlink:href="#glyph-0-2" x="15.175393" y="66.701"/>
<use xlink:href="#glyph-0-3" x="18.712116" y="66.701"/>
</g>
<g fill="rgb(0%, 0%, 0%)" fill-opacity="1">
<use xlink:href="#glyph-0-5" x="24.59005" y="66.701"/>
<use xlink:href="#glyph-0-8" x="29.382061" y="66.701"/>
<use xlink:href="#glyph-0-8" x="33.327251" y="66.701"/>
<use xlink:href="#glyph-0-7" x="37.27244" y="66.701"/>
<use xlink:href="#glyph-0-2" x="41.785498" y="66.701"/>
</g>
<g fill="rgb(0%, 0%, 0%)" fill-opacity="1">
<use xlink:href="#glyph-0-9" x="45.47166" y="66.701"/>
<use xlink:href="#glyph-0-10" x="50.074381" y="66.701"/>
</g>
<path fill="none" stroke-width="0.59776" stroke-linecap="butt" stroke-linejoin="miter" stroke="rgb(0%, 0%, 0%)" stroke-opacity="1" stroke-miterlimit="10" d="M 28.345531 19.274375 L 25.85725 21.766563 L 30.837719 26.747031 L 25.85725 31.7275 L 30.837719 36.711875 L 25.85725 41.692344 L 30.837719 46.672813 L 25.85725 51.653281 L 28.345531 54.145469 L 28.345531 56.110313 " transform="matrix(1, 0, 0, -1, 0.299, 71.165)"/>
<path fill="none" stroke-width="0.4782" stroke-linecap="round" stroke-linejoin="round" stroke="rgb(0%, 0%, 0%)" stroke-opacity="1" stroke-miterlimit="10" d="M -1.375467 1.8333 C -1.262186 1.1458 -0.0004675 0.11455 0.343283 0.00126875 C -0.0004675 -0.115919 -1.262186 -1.147169 -1.375467 -1.834669 " transform="matrix(0, -1, -1, 0, 28.6458, 15.05422)"/>
<path fill="none" stroke-width="0.59776" stroke-linecap="butt" stroke-linejoin="miter" stroke="rgb(0%, 0%, 0%)" stroke-opacity="1" stroke-miterlimit="10" d="M 28.345531 14.754844 L 28.345531 19.559531 " transform="matrix(1, 0, 0, -1, 0.299, 71.165)"/>
<path fill="none" stroke-width="0.4782" stroke-linecap="round" stroke-linejoin="round" stroke="rgb(0%, 0%, 0%)" stroke-opacity="1" stroke-miterlimit="10" d="M -1.373614 1.834669 C -1.260333 1.147169 0.00138625 0.115919 0.345136 -0.00126875 C 0.00138625 -0.11455 -1.260333 -1.1458 -1.373614 -1.8333 " transform="matrix(0, 1, 1, 0, 28.6458, 56.40877)"/>
<g fill="rgb(0%, 0%, 0%)" fill-opacity="1">
<use xlink:href="#glyph-0-11" x="68.54" y="37.368"/>
</g>
<path fill="none" stroke-width="0.59776" stroke-linecap="butt" stroke-linejoin="miter" stroke="rgb(0%, 0%, 0%)" stroke-opacity="1" stroke-miterlimit="10" d="M 113.3885 56.692344 L 113.3885 70.868125 L 170.079906 70.868125 L 170.079906 56.692344 Z M 113.3885 56.692344 " transform="matrix(1, 0, 0, -1, 0.299, 71.165)"/>
<g fill="rgb(0%, 0%, 0%)" fill-opacity="1">
<use xlink:href="#glyph-0-0" x="118.659" y="10.008"/>
<use xlink:href="#glyph-0-1" x="124.228093" y="10.008"/>
<use xlink:href="#glyph-0-2" x="129.209393" y="10.008"/>
<use xlink:href="#glyph-0-3" x="132.746116" y="10.008"/>
</g>
<g fill="rgb(0%, 0%, 0%)" fill-opacity="1">
<use xlink:href="#glyph-0-4" x="138.62405" y="10.008"/>
<use xlink:href="#glyph-0-5" x="146.663869" y="10.008"/>
<use xlink:href="#glyph-0-6" x="151.455879" y="10.008"/>
<use xlink:href="#glyph-0-3" x="154.046155" y="10.008"/>
<use xlink:href="#glyph-0-2" x="157.433439" y="10.008"/>
</g>
<g fill="rgb(0%, 0%, 0%)" fill-opacity="1">
<use xlink:href="#glyph-0-7" x="160.890461" y="10.008"/>
</g>
<g clip-path="url(#clip-1)">
<path fill="none" stroke-width="0.59776" stroke-linecap="butt" stroke-linejoin="miter" stroke="rgb(0%, 0%, 0%)" stroke-opacity="1" stroke-miterlimit="10" d="M 113.3885 0.0009375 L 113.3885 14.172813 L 170.079906 14.172813 L 170.079906 0.0009375 Z M 113.3885 0.0009375 " transform="matrix(1, 0, 0, -1, 0.299, 71.165)"/>
</g>
<g fill="rgb(0%, 0%, 0%)" fill-opacity="1">
<use xlink:href="#glyph-0-0" x="118.011" y="66.701"/>
<use xlink:href="#glyph-0-1" x="123.580093" y="66.701"/>
<use xlink:href="#glyph-0-2" x="128.561393" y="66.701"/>
<use xlink:href="#glyph-0-3" x="132.098116" y="66.701"/>
</g>
<g fill="rgb(0%, 0%, 0%)" fill-opacity="1">
<use xlink:href="#glyph-0-5" x="137.97605" y="66.701"/>
<use xlink:href="#glyph-0-8" x="142.768061" y="66.701"/>
<use xlink:href="#glyph-0-8" x="146.713251" y="66.701"/>
<use xlink:href="#glyph-0-7" x="150.65844" y="66.701"/>
<use xlink:href="#glyph-0-2" x="155.171498" y="66.701"/>
</g>
<g fill="rgb(0%, 0%, 0%)" fill-opacity="1">
<use xlink:href="#glyph-0-9" x="158.85766" y="66.701"/>
<use xlink:href="#glyph-0-10" x="163.460381" y="66.701"/>
</g>
<path fill="none" stroke-width="0.59776" stroke-linecap="butt" stroke-linejoin="miter" stroke="rgb(0%, 0%, 0%)" stroke-opacity="1" stroke-miterlimit="10" d="M 120.474437 24.094688 L 120.474437 46.774375 " transform="matrix(1, 0, 0, -1, 0.299, 71.165)"/>
<path fill="none" stroke-width="0.59776" stroke-linecap="butt" stroke-linejoin="miter" stroke="rgb(0%, 0%, 0%)" stroke-opacity="1" stroke-miterlimit="10" d="M 134.646312 24.094688 L 134.646312 46.774375 " transform="matrix(1, 0, 0, -1, 0.299, 71.165)"/>
<path fill="none" stroke-width="0.59776" stroke-linecap="butt" stroke-linejoin="miter" stroke="rgb(0%, 0%, 0%)" stroke-opacity="1" stroke-miterlimit="10" d="M 120.474437 24.094688 L 134.646312 24.094688 " transform="matrix(1, 0, 0, -1, 0.299, 71.165)"/>
<path fill="none" stroke-width="0.59776" stroke-linecap="butt" stroke-linejoin="miter" stroke="rgb(0%, 0%, 0%)" stroke-opacity="1" stroke-miterlimit="10" d="M 120.474437 29.762656 L 134.646312 29.762656 " transform="matrix(1, 0, 0, -1, 0.299, 71.165)"/>
<path fill="none" stroke-width="0.59776" stroke-linecap="butt" stroke-linejoin="miter" stroke="rgb(0%, 0%, 0%)" stroke-opacity="1" stroke-miterlimit="10" d="M 120.474437 35.434531 L 134.646312 35.434531 " transform="matrix(1, 0, 0, -1, 0.299, 71.165)"/>
<path fill="none" stroke-width="0.59776" stroke-linecap="butt" stroke-linejoin="miter" stroke="rgb(0%, 0%, 0%)" stroke-opacity="1" stroke-miterlimit="10" d="M 120.474437 41.1025 L 134.646312 41.1025 " transform="matrix(1, 0, 0, -1, 0.299, 71.165)"/>
<path fill="none" stroke-width="0.59776" stroke-linecap="butt" stroke-linejoin="miter" stroke="rgb(0%, 0%, 0%)" stroke-opacity="1" stroke-miterlimit="10" d="M 148.822094 24.094688 L 148.822094 46.774375 " transform="matrix(1, 0, 0, -1, 0.299, 71.165)"/>
<path fill="none" stroke-width="0.59776" stroke-linecap="butt" stroke-linejoin="miter" stroke="rgb(0%, 0%, 0%)" stroke-opacity="1" stroke-miterlimit="10" d="M 162.993969 24.094688 L 162.993969 46.774375 " transform="matrix(1, 0, 0, -1, 0.299, 71.165)"/>
<path fill="none" stroke-width="0.59776" stroke-linecap="butt" stroke-linejoin="miter" stroke="rgb(0%, 0%, 0%)" stroke-opacity="1" stroke-miterlimit="10" d="M 148.822094 29.762656 L 162.993969 29.762656 " transform="matrix(1, 0, 0, -1, 0.299, 71.165)"/>
<path fill="none" stroke-width="0.59776" stroke-linecap="butt" stroke-linejoin="miter" stroke="rgb(0%, 0%, 0%)" stroke-opacity="1" stroke-miterlimit="10" d="M 148.822094 35.434531 L 162.993969 35.434531 " transform="matrix(1, 0, 0, -1, 0.299, 71.165)"/>
<path fill="none" stroke-width="0.59776" stroke-linecap="butt" stroke-linejoin="miter" stroke="rgb(0%, 0%, 0%)" stroke-opacity="1" stroke-miterlimit="10" d="M 148.822094 41.1025 L 162.993969 41.1025 " transform="matrix(1, 0, 0, -1, 0.299, 71.165)"/>
<path fill="none" stroke-width="0.59776" stroke-linecap="butt" stroke-linejoin="miter" stroke="rgb(0%, 0%, 0%)" stroke-opacity="1" stroke-miterlimit="10" d="M 148.822094 46.774375 L 162.993969 46.774375 " transform="matrix(1, 0, 0, -1, 0.299, 71.165)"/>
<path fill="none" stroke-width="0.59776" stroke-linecap="butt" stroke-linejoin="miter" stroke="rgb(0%, 0%, 0%)" stroke-opacity="1" stroke-miterlimit="10" d="M 127.560375 56.692344 L 127.560375 41.684531 " transform="matrix(1, 0, 0, -1, 0.299, 71.165)"/>
<path fill="none" stroke-width="0.4782" stroke-linecap="round" stroke-linejoin="round" stroke="rgb(0%, 0%, 0%)" stroke-opacity="1" stroke-miterlimit="10" d="M -1.373491 1.831786 C -1.26021 1.144286 0.00150875 0.113036 0.345259 -0.000245 C 0.00150875 -0.113526 -1.26021 -1.144776 -1.373491 -1.832276 " transform="matrix(0, 1, 1, 0, 127.85962, 29.47896)"/>
<path fill="none" stroke-width="0.59776" stroke-linecap="butt" stroke-linejoin="miter" stroke="rgb(0%, 0%, 0%)" stroke-opacity="1" stroke-miterlimit="10" d="M 127.560375 24.094688 L 127.560375 14.754844 " transform="matrix(1, 0, 0, -1, 0.299, 71.165)"/>
<path fill="none" stroke-width="0.4782" stroke-linecap="round" stroke-linejoin="round" stroke="rgb(0%, 0%, 0%)" stroke-opacity="1" stroke-miterlimit="10" d="M -1.373614 1.831786 C -1.260333 1.144286 0.00138625 0.113036 0.345136 -0.000245 C 0.00138625 -0.113526 -1.260333 -1.144776 -1.373614 -1.832276 " transform="matrix(0, 1, 1, 0, 127.85962, 56.40877)"/>
<path fill="none" stroke-width="0.59776" stroke-linecap="butt" stroke-linejoin="miter" stroke="rgb(0%, 0%, 0%)" stroke-opacity="1" stroke-miterlimit="10" d="M 155.908031 56.110313 L 155.908031 46.774375 " transform="matrix(1, 0, 0, -1, 0.299, 71.165)"/>
<path fill="none" stroke-width="0.4782" stroke-linecap="round" stroke-linejoin="round" stroke="rgb(0%, 0%, 0%)" stroke-opacity="1" stroke-miterlimit="10" d="M -1.375467 1.83144 C -1.262186 1.14394 -0.0004675 0.11269 0.343283 -0.00059125 C -0.0004675 -0.113872 -1.262186 -1.145122 -1.375467 -1.832622 " transform="matrix(0, -1, -1, 0, 156.20644, 15.05422)"/>
<path fill="none" stroke-width="0.59776" stroke-linecap="butt" stroke-linejoin="miter" stroke="rgb(0%, 0%, 0%)" stroke-opacity="1" stroke-miterlimit="10" d="M 155.908031 29.180625 L 155.908031 14.172813 " transform="matrix(1, 0, 0, -1, 0.299, 71.165)"/>
<path fill="none" stroke-width="0.4782" stroke-linecap="round" stroke-linejoin="round" stroke="rgb(0%, 0%, 0%)" stroke-opacity="1" stroke-miterlimit="10" d="M -1.375775 1.83144 C -1.258587 1.14394 -0.000775 0.11269 0.342975 -0.00059125 C -0.000775 -0.113872 -1.258587 -1.145122 -1.375775 -1.832622 " transform="matrix(0, -1, -1, 0, 156.20644, 41.9836)"/>
<g fill="rgb(0%, 0%, 0%)" fill-opacity="1">
<use xlink:href="#glyph-1-0" x="85.645" y="37.653"/>
<use xlink:href="#glyph-1-1" x="90.325461" y="37.653"/>
<use xlink:href="#glyph-1-2" x="94.575534" y="37.653"/>
<use xlink:href="#glyph-1-3" x="98.951138" y="37.653"/>
<use xlink:href="#glyph-1-4" x="103.559867" y="37.653"/>
<use xlink:href="#glyph-1-5" x="107.38852" y="37.653"/>
<use xlink:href="#glyph-1-6" x="110.096373" y="37.653"/>
</g>
<g fill="rgb(0%, 0%, 0%)" fill-opacity="1">
<use xlink:href="#glyph-1-0" x="170.684" y="37.653"/>
<use xlink:href="#glyph-1-1" x="175.364461" y="37.653"/>
<use xlink:href="#glyph-1-2" x="179.614534" y="37.653"/>
<use xlink:href="#glyph-1-3" x="183.990138" y="37.653"/>
<use xlink:href="#glyph-1-4" x="188.598867" y="37.653"/>
<use xlink:href="#glyph-1-5" x="192.42752" y="37.653"/>
<use xlink:href="#glyph-1-6" x="195.135373" y="37.653"/>
</g>
</svg>
